<svg width="12" height="12" viewBox="0 0 12 12" fill="none" xmlns="http://www.w3.org/2000/svg">
<mask id="path-1-inside-1_3457_14062" fill="white">
<path d="M2.14845 11.1915C2.08995 11.528 2.41845 11.7909 2.70794 11.6409L6.00038 9.93122L9.29207 11.6409C9.58156 11.7909 9.91006 11.528 9.85156 11.1923L9.22907 7.60769L11.8705 5.06439C12.118 4.82643 11.9905 4.39143 11.659 4.34444L7.98559 3.81699L6.34762 0.537829C6.31642 0.471358 6.26719 0.415198 6.20566 0.375873C6.14413 0.336549 6.07281 0.315674 6.00001 0.315674C5.9272 0.315674 5.85589 0.336549 5.79435 0.375873C5.73282 0.415198 5.68359 0.471358 5.65239 0.537829L4.01442 3.81775L0.340984 4.3452C0.0102399 4.39219 -0.118008 4.82719 0.128738 5.06515L2.77094 7.60845L2.14845 11.193V11.1915ZM5.82713 9.09457L3.06268 10.5299L3.58317 7.53115C3.59537 7.46212 3.5906 7.39112 3.56928 7.32439C3.54797 7.25766 3.51076 7.19724 3.46093 7.14844L1.28147 5.04923L4.32041 4.61272C4.38334 4.60312 4.44303 4.57824 4.49436 4.54023C4.54569 4.50222 4.58714 4.4522 4.61516 4.39446L5.99888 1.62229L7.38411 4.39446C7.41212 4.4522 7.45357 4.50222 7.5049 4.54023C7.55624 4.57824 7.61592 4.60312 7.67885 4.61272L10.7178 5.04847L8.53833 7.14768C8.48839 7.19656 8.45111 7.25711 8.42979 7.32398C8.40847 7.39085 8.40376 7.462 8.41609 7.53115L8.93658 10.5299L6.17213 9.09457C6.11867 9.06672 6.0594 9.05219 5.99926 9.05219C5.93911 9.05219 5.88059 9.06672 5.82713 9.09457Z"/>
</mask>
<path d="M2.14845 11.1915C2.08995 11.528 2.41845 11.7909 2.70794 11.6409L6.00038 9.93122L9.29207 11.6409C9.58156 11.7909 9.91006 11.528 9.85156 11.1923L9.22907 7.60769L11.8705 5.06439C12.118 4.82643 11.9905 4.39143 11.659 4.34444L7.98559 3.81699L6.34762 0.537829C6.31642 0.471358 6.26719 0.415198 6.20566 0.375873C6.14413 0.336549 6.07281 0.315674 6.00001 0.315674C5.9272 0.315674 5.85589 0.336549 5.79435 0.375873C5.73282 0.415198 5.68359 0.471358 5.65239 0.537829L4.01442 3.81775L0.340984 4.3452C0.0102399 4.39219 -0.118008 4.82719 0.128738 5.06515L2.77094 7.60845L2.14845 11.193V11.1915ZM5.82713 9.09457L3.06268 10.5299L3.58317 7.53115C3.59537 7.46212 3.5906 7.39112 3.56928 7.32439C3.54797 7.25766 3.51076 7.19724 3.46093 7.14844L1.28147 5.04923L4.32041 4.61272C4.38334 4.60312 4.44303 4.57824 4.49436 4.54023C4.54569 4.50222 4.58714 4.4522 4.61516 4.39446L5.99888 1.62229L7.38411 4.39446C7.41212 4.4522 7.45357 4.50222 7.5049 4.54023C7.55624 4.57824 7.61592 4.60312 7.67885 4.61272L10.7178 5.04847L8.53833 7.14768C8.48839 7.19656 8.45111 7.25711 8.42979 7.32398C8.40847 7.39085 8.40376 7.462 8.41609 7.53115L8.93658 10.5299L6.17213 9.09457C6.11867 9.06672 6.0594 9.05219 5.99926 9.05219C5.93911 9.05219 5.88059 9.06672 5.82713 9.09457Z" fill="#FFA620"/>
<path d="M2.14845 11.1915H3.14845L1.16323 11.0202L2.14845 11.1915ZM2.70794 11.6409L3.16812 12.5287L3.16879 12.5284L2.70794 11.6409ZM6.00038 9.93122L6.46131 9.04378L6.00043 8.80441L5.53953 9.04374L6.00038 9.93122ZM9.29207 11.6409L8.83114 12.5283L8.83189 12.5287L9.29207 11.6409ZM9.85156 11.1923L8.86631 11.3634L8.8664 11.3639L9.85156 11.1923ZM9.22907 7.60769L8.53547 6.88733L8.15297 7.25562L8.24382 7.77879L9.22907 7.60769ZM11.8705 5.06439L11.1774 4.34353L11.1769 4.34403L11.8705 5.06439ZM11.659 4.34444L11.5169 5.33429L11.5187 5.33455L11.659 4.34444ZM7.98559 3.81699L7.09099 4.26385L7.32503 4.7324L7.84347 4.80684L7.98559 3.81699ZM6.34762 0.537829L5.4424 0.962764L5.44758 0.973792L5.45302 0.984691L6.34762 0.537829ZM6.00001 0.315674V-0.684326V0.315674ZM5.65239 0.537829L6.54703 0.984608L6.55245 0.97375L6.55761 0.962764L5.65239 0.537829ZM4.01442 3.81775L4.15655 4.8076L4.67503 4.73315L4.90906 4.26453L4.01442 3.81775ZM0.340984 4.3452L0.481633 5.33526L0.483112 5.33505L0.340984 4.3452ZM0.128738 5.06515L-0.56544 5.78495L-0.564757 5.78561L0.128738 5.06515ZM2.77094 7.60845L3.75619 7.77954L3.84706 7.25629L3.46443 6.88799L2.77094 7.60845ZM2.14845 11.193H1.14845L3.13371 11.3641L2.14845 11.193ZM5.82713 9.09457L6.28794 9.98207L6.28916 9.98143L5.82713 9.09457ZM3.06268 10.5299L2.07742 10.3589L1.73227 12.3474L3.52349 11.4174L3.06268 10.5299ZM3.58317 7.53115L2.59842 7.3572L2.59791 7.36014L3.58317 7.53115ZM3.46093 7.14844L4.16063 6.43395L4.15465 6.4282L3.46093 7.14844ZM1.28147 5.04923L1.13929 4.05939L-0.885723 4.35026L0.587745 5.76947L1.28147 5.04923ZM4.32041 4.61272L4.4626 5.6026L4.47126 5.60128L4.32041 4.61272ZM4.61516 4.39446L3.72037 3.94783L3.71547 3.95793L4.61516 4.39446ZM5.99888 1.62229L6.89342 1.1753L5.9984 -0.615853L5.10415 1.17569L5.99888 1.62229ZM7.38411 4.39446L8.28386 3.9579L8.27864 3.94747L7.38411 4.39446ZM7.67885 4.61272L7.528 5.60132L7.53691 5.60259L7.67885 4.61272ZM10.7178 5.04847L11.4115 5.76872L12.8854 4.34907L10.8597 4.0586L10.7178 5.04847ZM8.53833 7.14768L7.84459 6.42742L7.83893 6.43296L8.53833 7.14768ZM8.41609 7.53115L9.40137 7.36014L9.40058 7.35571L8.41609 7.53115ZM8.93658 10.5299L8.47577 11.4174L10.267 12.3474L9.92185 10.3589L8.93658 10.5299ZM6.17213 9.09457L5.7101 9.98143L5.71132 9.98207L6.17213 9.09457ZM1.16323 11.0202C0.985767 12.041 2.02897 13.1192 3.16812 12.5287L2.24776 10.7531C2.48934 10.6279 2.75759 10.6856 2.92345 10.8186C3.08466 10.948 3.1694 11.1573 3.13367 11.3628L1.16323 11.0202ZM3.16879 12.5284L6.46123 10.8187L5.53953 9.04374L2.24709 10.7534L3.16879 12.5284ZM5.53945 10.8187L8.83114 12.5283L9.753 10.7535L6.46131 9.04378L5.53945 10.8187ZM8.83189 12.5287C9.9694 13.1183 11.0148 12.0428 10.8367 11.0206L8.8664 11.3639C8.83036 11.1571 8.91595 10.9474 9.07696 10.8184C9.24267 10.6856 9.51072 10.6279 9.75225 10.7531L8.83189 12.5287ZM10.8368 11.0212L10.2143 7.43659L8.24382 7.77879L8.86631 11.3634L10.8368 11.0212ZM9.92267 8.32805L12.5641 5.78475L11.1769 4.34403L8.53547 6.88733L9.92267 8.32805ZM12.5636 5.78524C13.3524 5.02681 13.037 3.52977 11.7994 3.35434L11.5187 5.33455C11.2376 5.29471 11.0728 5.08632 11.0224 4.91444C10.9725 4.74444 11.0014 4.51281 11.1774 4.34353L12.5636 5.78524ZM11.8012 3.3546L8.12772 2.82714L7.84347 4.80684L11.5169 5.33429L11.8012 3.3546ZM8.8802 3.37013L7.24223 0.0909669L5.45302 0.984691L7.09099 4.26385L8.8802 3.37013ZM7.25285 0.112894C7.1418 -0.123661 6.96588 -0.325054 6.74416 -0.466751L5.66716 1.2185C5.5685 1.15545 5.49104 1.06638 5.4424 0.962764L7.25285 0.112894ZM6.74416 -0.466751C6.52234 -0.608515 6.26426 -0.684326 6.00001 -0.684326V1.31567C5.88136 1.31567 5.76592 1.28161 5.66716 1.2185L6.74416 -0.466751ZM6.00001 -0.684326C5.73575 -0.684326 5.47768 -0.608515 5.25585 -0.466751L6.33285 1.2185C6.23409 1.28161 6.11865 1.31567 6.00001 1.31567V-0.684326ZM5.25585 -0.466751C5.03413 -0.325054 4.85821 -0.123661 4.74716 0.112894L6.55761 0.962764C6.50897 1.06638 6.43151 1.15545 6.33285 1.2185L5.25585 -0.466751ZM4.75774 0.0910496L3.11977 3.37097L4.90906 4.26453L6.54703 0.984608L4.75774 0.0910496ZM3.87229 2.8279L0.198855 3.35535L0.483112 5.33505L4.15655 4.8076L3.87229 2.8279ZM0.200335 3.35514C-1.03378 3.53046 -1.35354 5.02491 -0.56544 5.78495L0.822915 4.34534C0.99959 4.51573 1.02721 4.74768 0.977487 4.91634C0.927303 5.08656 0.76347 5.29522 0.481633 5.33526L0.200335 3.35514ZM-0.564757 5.78561L2.07745 8.32891L3.46443 6.88799L0.822232 4.34469L-0.564757 5.78561ZM1.78569 7.43735L1.1632 11.0219L3.13371 11.3641L3.75619 7.77954L1.78569 7.43735ZM3.14845 11.193V11.1915H1.14845V11.193H3.14845ZM5.36633 8.20706L2.60188 9.64241L3.52349 11.4174L6.28794 9.98207L5.36633 8.20706ZM4.04795 10.7009L4.56844 7.70216L2.59791 7.36014L2.07742 10.3589L4.04795 10.7009ZM4.56793 7.7051C4.60831 7.47651 4.59255 7.24139 4.52186 7.02011L2.6167 7.62867C2.58865 7.54085 2.58243 7.44773 2.59842 7.3572L4.56793 7.7051ZM4.52186 7.02011C4.45117 6.79879 4.32744 6.59737 4.1606 6.43398L2.76125 7.8629C2.69407 7.79711 2.64476 7.71653 2.6167 7.62867L4.52186 7.02011ZM4.15465 6.4282L1.97519 4.32899L0.587745 5.76947L2.7672 7.86868L4.15465 6.4282ZM1.42365 6.03907L4.46259 5.60256L4.17823 3.62288L1.13929 4.05939L1.42365 6.03907ZM4.47126 5.60128C4.69569 5.56703 4.90777 5.47842 5.08946 5.34388L3.89926 3.73658C3.97828 3.67807 4.07098 3.6392 4.16956 3.62416L4.47126 5.60128ZM5.08946 5.34388C5.27109 5.20939 5.41675 5.03317 5.51485 4.83099L3.71547 3.95793C3.75753 3.87124 3.82029 3.79506 3.89926 3.73658L5.08946 5.34388ZM5.50989 4.84107L6.89361 2.0689L5.10415 1.17569L3.72042 3.94786L5.50989 4.84107ZM5.10434 2.06929L6.48957 4.84145L8.27864 3.94747L6.89342 1.1753L5.10434 2.06929ZM6.48442 4.83099C6.58251 5.03317 6.72817 5.20939 6.9098 5.34388L8.1 3.73658C8.17897 3.79506 8.24173 3.87124 8.2838 3.95793L6.48442 4.83099ZM6.9098 5.34388C7.09149 5.47842 7.30357 5.56703 7.528 5.60128L7.8297 3.62416C7.92828 3.6392 8.02098 3.67807 8.1 3.73658L6.9098 5.34388ZM7.53691 5.60259L10.5759 6.03835L10.8597 4.0586L7.82079 3.62284L7.53691 5.60259ZM10.0241 4.32823L7.84461 6.42744L9.23206 7.86793L11.4115 5.76872L10.0241 4.32823ZM7.83893 6.43296C7.6717 6.5966 7.54774 6.79845 7.47703 7.02024L9.38255 7.62772C9.35448 7.71576 9.30507 7.79652 9.23774 7.86241L7.83893 6.43296ZM7.47703 7.02024C7.40634 7.24201 7.39079 7.47763 7.4316 7.70659L9.40058 7.35571C9.41673 7.44638 9.4106 7.5397 9.38255 7.62772L7.47703 7.02024ZM7.43082 7.70216L7.95131 10.7009L9.92185 10.3589L9.40136 7.36014L7.43082 7.70216ZM9.39738 9.64241L6.63293 8.20706L5.71132 9.98207L8.47577 11.4174L9.39738 9.64241ZM6.63415 8.2077C6.43836 8.1057 6.22064 8.05219 5.99926 8.05219V10.0522C5.89816 10.0522 5.79898 10.0277 5.7101 9.98143L6.63415 8.2077ZM5.99926 8.05219C5.77582 8.05219 5.55906 8.10666 5.36511 8.2077L6.28916 9.98143C6.20212 10.0268 6.10241 10.0522 5.99926 10.0522V8.05219Z" fill="#FFA620" mask="url(#path-1-inside-1_3457_14062)"/>
<path d="M3.59003 9.01673L3.92676 7.1199L3.59003 9.01673Z" fill="#FFA620" stroke="#FFA620"/>
<mask id="path-4-inside-2_3457_14062" fill="white">
<path d="M4.28683 4.10435L6.00111 0.639893L7.7154 4.10435L11.144 4.97047L8.57254 7.13576L9.42969 11.4663L6.00111 9.7341L2.57254 11.4663L3.00112 7.56881L0.429688 4.97047L4.28683 4.10435Z"/>
</mask>
<path d="M6.00111 0.639893L14.0676 -3.35157L6.00111 -19.6534L-2.06537 -3.35157L6.00111 0.639893ZM4.28683 4.10435L6.25866 12.8857L10.4488 11.9448L12.3533 8.09582L4.28683 4.10435ZM0.429688 4.97047L-1.54215 -3.81087L-17.3991 -0.250219L-5.96732 11.3012L0.429688 4.97047ZM3.00112 7.56881L11.9472 8.55252L12.4162 4.28769L9.39812 1.23807L3.00112 7.56881ZM2.57254 11.4663L-6.37353 10.4826L-8.18831 26.9865L6.63107 19.4993L2.57254 11.4663ZM6.00111 9.7341L10.0596 1.70114L6.00111 -0.349361L1.94259 1.70114L6.00111 9.7341ZM9.42969 11.4663L5.37116 19.4993L21.8412 27.8205L18.2584 9.71888L9.42969 11.4663ZM8.57254 7.13576L2.77552 0.251388L-1.28749 3.67267L-0.256183 8.88321L8.57254 7.13576ZM11.144 4.97047L16.941 11.8548L30.3721 0.54509L13.3483 -3.75542L11.144 4.97047ZM7.7154 4.10435L-0.351088 8.09582L1.48882 11.8141L5.51109 12.8302L7.7154 4.10435ZM-2.06537 -3.35157L-3.77966 0.11289L12.3533 8.09582L14.0676 4.63136L-2.06537 -3.35157ZM2.31499 -4.67698L-1.54215 -3.81087L2.40152 13.7518L6.25866 12.8857L2.31499 -4.67698ZM-5.96732 11.3012L-3.39589 13.8996L9.39812 1.23807L6.8267 -1.36027L-5.96732 11.3012ZM-5.94496 6.5851L-6.37353 10.4826L11.5186 12.45L11.9472 8.55252L-5.94496 6.5851ZM6.63107 19.4993L10.0596 17.7671L1.94259 1.70114L-1.48598 3.43337L6.63107 19.4993ZM1.94259 17.7671L5.37116 19.4993L13.4882 3.43337L10.0596 1.70114L1.94259 17.7671ZM18.2584 9.71888L17.4013 5.3883L-0.256183 8.88321L0.600959 13.2138L18.2584 9.71888ZM14.3696 14.0201L16.941 11.8548L5.34695 -1.9139L2.77552 0.251388L14.3696 14.0201ZM13.3483 -3.75542L9.91971 -4.62153L5.51109 12.8302L8.93967 13.6964L13.3483 -3.75542ZM15.7819 0.11289L14.0676 -3.35157L-2.06537 4.63136L-0.351088 8.09582L15.7819 0.11289Z" fill="#FFA620" mask="url(#path-4-inside-2_3457_14062)"/>
</svg>
