<svg width="17" height="16" viewBox="0 0 17 16" fill="none" xmlns="http://www.w3.org/2000/svg">
<path d="M0.74566 14.9624L1.68775 12.0734C1.73504 11.9284 1.71356 11.7698 1.62941 11.6426C0.652238 10.1653 0.302229 8.42289 0.636167 6.73652C0.970321 5.04905 1.96984 3.51769 3.46418 2.43403C4.95947 1.34967 6.84439 0.791288 8.76827 0.871023C10.6921 0.950758 12.5113 1.66257 13.8893 2.86398C15.2662 4.06444 16.1071 5.66933 16.2706 7.37601C16.4341 9.08213 15.9113 10.7902 14.7879 12.1833C13.6633 13.5779 12.0114 14.5631 10.1331 14.9435C8.25469 15.3239 6.28945 15.0707 4.60552 14.2351C4.50381 14.1846 4.38795 14.1703 4.277 14.1944L0.74566 14.9624ZM8.89347 8.00993C8.89347 7.73379 8.66961 7.50993 8.39347 7.50993C8.11733 7.50993 7.89347 7.73379 7.89347 8.00993V8.01947C7.89347 8.29561 8.11733 8.51947 8.39347 8.51947C8.66961 8.51947 8.89347 8.29561 8.89347 8.01947V8.00993ZM5.16304 8.00993C5.16304 7.73379 4.93918 7.50993 4.66304 7.50993C4.3869 7.50993 4.16304 7.73379 4.16304 8.00993V8.01947C4.16304 8.29561 4.3869 8.51947 4.66304 8.51947C4.93918 8.51947 5.16304 8.29561 5.16304 8.01947V8.00993ZM12.6239 8.00993C12.6239 7.73379 12.4 7.50993 12.1239 7.50993C11.8478 7.50993 11.6239 7.73379 11.6239 8.00993V8.01947C11.6239 8.29561 11.8478 8.51947 12.1239 8.51947C12.4 8.51947 12.6239 8.29561 12.6239 8.01947V8.00993Z" stroke="black" stroke-linecap="round" stroke-linejoin="round"/>
</svg>
