<svg width="13" height="13" viewBox="0 0 13 13" fill="none" xmlns="http://www.w3.org/2000/svg">
<path d="M0.125071 4.89711C0.123314 5.0048 0.15433 5.11047 0.214007 5.20013C0.273685 5.28979 0.359204 5.35919 0.459227 5.39914L5.55976 7.43967L7.60029 12.5407C7.63971 12.6394 7.7078 12.724 7.79578 12.7835C7.88376 12.8431 7.98757 12.8749 8.09382 12.8749H8.10232C8.20992 12.8732 8.31446 12.8389 8.40212 12.7764C8.48977 12.714 8.55641 12.6264 8.5932 12.5253L12.8432 0.837825C12.878 0.742745 12.8849 0.639703 12.8631 0.540834C12.8413 0.441966 12.7917 0.351389 12.7201 0.27977C12.6485 0.208151 12.558 0.158472 12.4591 0.136585C12.3603 0.114698 12.2572 0.121515 12.1621 0.156231L0.474633 4.40623C0.373465 4.44312 0.285878 4.50985 0.22346 4.59759C0.161041 4.68534 0.126732 4.78997 0.125071 4.89764V4.89711Z" fill="#FC0B54"/>
</svg>
