<svg width="24" height="28" viewBox="0 0 20 26" fill="none" xmlns="http://www.w3.org/2000/svg">
<path d="M17.9854 16.3429L17.9864 16.3401C19.2957 14.5782 20.0031 12.4263 20 10.2143C19.9969 7.50627 18.9423 4.91008 17.0676 2.99522C15.1929 1.08037 12.6512 0.00319472 10 0M17.9854 16.3429L17.9781 16.3374L17.2585 15.7992L17.1847 15.7439L17.1846 15.744L17.1845 15.7441L17.1839 15.7449L17.1817 15.7479L17.1731 15.7594L17.1418 15.8011L17.086 15.8755M17.9854 16.3429C17.9854 16.3429 17.7118 16.7087 17.6718 16.7579M17.9854 16.3429L17.0346 16.0331L17.0355 16.0303L17.086 15.8755M17.086 15.8755L17.0862 15.8748L17.1837 15.7436C18.3636 14.156 19.0028 12.2141 19 10.2157L19 10.2154C18.9972 7.76549 18.0429 5.42086 16.353 3.69479C14.6642 1.96974 12.3791 1.00319 10 1M17.086 15.8755L17.0444 15.9309C17.008 15.9793 16.9711 16.0283 16.9411 16.0678C16.9164 16.1003 16.9027 16.1181 16.8977 16.1247C16.8969 16.1257 16.8963 16.1265 16.8959 16.127M10 1C10.0004 1 10.0008 1 10.0012 0.999999L10 0M10 1C9.9996 1 9.9992 1 9.99879 0.999999L10 0M10 1C7.62095 1.00319 5.33582 1.96974 3.64696 3.69479C1.95711 5.42086 1.00284 7.76549 1.00001 10.2154L1.00001 10.2157C0.997141 12.2151 1.63664 14.1579 2.81706 15.7462L2.81703 15.7462L2.01455 16.3429M10 0C7.3488 0.00319472 4.80708 1.08037 2.93239 2.99522C1.05771 4.91008 0.00313834 7.50627 1.0639e-05 10.2143C-0.00316471 12.4273 0.704538 14.5802 2.01455 16.3429M2.01455 16.3429L2.81716 15.7463L2.81718 15.7464L2.81772 15.7471L2.81992 15.7501L2.82845 15.7615L2.85945 15.8031L2.95642 15.9328C3.02365 16.0224 3.07244 16.0865 3.0899 16.1094C3.09472 16.1157 3.09715 16.1189 3.09693 16.1187L3.10128 16.1238L3.10126 16.1238L9.99999 24.4344M2.01455 16.3429C2.01455 16.3429 2.28728 16.7096 2.33183 16.7626L9.35017 25.2172L9.99999 24.4344M9.99999 24.4344L10.6498 25.2172L17.6718 16.7579M9.99999 24.4344L16.8959 16.127M17.6718 16.7579L16.8958 16.1272C16.8952 16.128 16.8952 16.1279 16.8959 16.127M17.6718 16.7579L16.9024 16.1192L16.8959 16.127M14.6364 10.2155V10.2143C14.6364 9.28655 14.3671 8.37797 13.8604 7.60331C13.3535 6.82842 12.6308 6.22121 11.7812 5.86177C10.9314 5.50223 9.99507 5.4078 9.09148 5.59139C8.18803 5.77495 7.36112 6.22747 6.71414 6.88832C6.06738 7.54894 5.62925 8.38807 5.45195 9.29852C5.27467 10.2089 5.36548 11.1527 5.71374 12.0115C6.06208 12.8705 6.65335 13.608 7.41603 14.1286C8.17897 14.6493 9.07823 14.9286 10 14.9286L10.0013 14.9286C11.237 14.927 12.4173 14.4247 13.2845 13.5389C14.151 12.6538 14.6348 11.4583 14.6364 10.2155Z" stroke="#5B5B5B" stroke-width="2"/>
</svg>
